HIERARCHY
ROOT joint_Root
{
	OFFSET 0.0 0.0 0.0
	CHANNELS 6 Xposition Yposition Zposition Zrotation Xrotation Yrotation 
	JOINT Hips
	{
		OFFSET 4.5925 91.4895 -427.239
		CHANNELS 6 Xposition Yposition Zposition Zrotation Xrotation Yrotation 
		JOINT Spine
		{
			OFFSET 15.7357 0.0 0.0
			CHANNELS 6 Xposition Yposition Zposition Zrotation Xrotation Yrotation 
			JOINT Chest
			{
				OFFSET 8.98455 -0.406207 0.0
				CHANNELS 6 Xposition Yposition Zposition Zrotation Xrotation Yrotation 
				JOINT Neck
				{
					OFFSET 16.3773 0.0 0.0
					CHANNELS 6 Xposition Yposition Zposition Zrotation Xrotation Yrotation 
					JOINT Head
					{
						OFFSET 6.45672 0.0 0.0
						CHANNELS 6 Xposition Yposition Zposition Zrotation Xrotation Yrotation 
						End Site
						{
							OFFSET 0.0 0.0 0.0
						}
					}
				}
				JOINT Shoulder_L
				{
					OFFSET 12.9942 -0.242716 4.98039
					CHANNELS 6 Xposition Yposition Zposition Zrotation Xrotation Yrotation 
					JOINT UpperArm_L
					{
						OFFSET 5.34809 0.0 0.0
						CHANNELS 6 Xposition Yposition Zposition Zrotation Xrotation Yrotation 
						JOINT LowerArm_L
						{
							OFFSET 24.3286 1.87007e-05 0.0
							CHANNELS 6 Xposition Yposition Zposition Zrotation Xrotation Yrotation 
							JOINT Hand_L
							{
								OFFSET 22.2916 0.0 0.0
								CHANNELS 6 Xposition Yposition Zposition Zrotation Xrotation Yrotation 
								End Site
								{
									OFFSET 0.0 0.0 0.0
								}
							}
						}
					}
				}
				JOINT Shoulder_R
				{
					OFFSET 12.9945 -0.242716 -4.98039
					CHANNELS 6 Xposition Yposition Zposition Zrotation Xrotation Yrotation 
					JOINT UpperArm_R
					{
						OFFSET -5.34813 0.0 0.0
						CHANNELS 6 Xposition Yposition Zposition Zrotation Xrotation Yrotation 
						JOINT LowerArm_R
						{
							OFFSET -24.3289 0.000322201 0.0
							CHANNELS 6 Xposition Yposition Zposition Zrotation Xrotation Yrotation 
							JOINT Hand_R
							{
								OFFSET -22.2915 -0.000108084 0.0
								CHANNELS 6 Xposition Yposition Zposition Zrotation Xrotation Yrotation 
								End Site
								{
									OFFSET 0.0 0.0 0.0
								}
							}
						}
					}
				}
			}
		}
		JOINT UpperLeg_L
		{
			OFFSET -2.19248 -6.46944 0.0
			CHANNELS 6 Xposition Yposition Zposition Zrotation Xrotation Yrotation 
			JOINT LowerLeg_L
			{
				OFFSET 39.0811 0.0 -1.23785e-05
				CHANNELS 6 Xposition Yposition Zposition Zrotation Xrotation Yrotation 
				JOINT Foot_L
				{
					OFFSET 40.9854 0.0 -1.26872e-05
					CHANNELS 6 Xposition Yposition Zposition Zrotation Xrotation Yrotation 
					JOINT Toes_L
					{
						OFFSET 11.7543 0.0 0.0
						CHANNELS 6 Xposition Yposition Zposition Zrotation Xrotation Yrotation 
						End Site
						{
							OFFSET 0.0 0.0 0.0
						}
					}
				}
			}
		}
		JOINT UpperLeg_R
		{
			OFFSET -2.19251 6.46944 0.0
			CHANNELS 6 Xposition Yposition Zposition Zrotation Xrotation Yrotation 
			JOINT LowerLeg_R
			{
				OFFSET -39.0811 -0.00228153 -0.0401928
				CHANNELS 6 Xposition Yposition Zposition Zrotation Xrotation Yrotation 
				JOINT Foot_R
				{
					OFFSET -40.9854 0.0 0.0
					CHANNELS 6 Xposition Yposition Zposition Zrotation Xrotation Yrotation 
					JOINT Toes_R
					{
						OFFSET -11.7543 0.0 0.0
						CHANNELS 6 Xposition Yposition Zposition Zrotation Xrotation Yrotation 
						End Site
						{
							OFFSET 0.0 0.0 0.0
						}
					}
				}
			}
		}
	}
}
MOTION
Frames:	6
Frame Time:	0.0333333
0.000000 0.000000 0.000000 0.000000 0.000000 -0.000000 122.537000 89.938400 -12.908100 89.701300 -0.523361 2.117250 15.735700 0.000005 -0.000001 87.798600 80.886900 -86.744100 8.984550 -0.406207 -0.000000 10.454300 -0.670638 2.168980 16.377300 -0.000001 -0.000001 2.770650 -6.300130 2.666950 6.456720 -0.000001 -0.000000 -1.126680 -6.497780 0.210726 12.994200 -0.242716 4.980390 -90.950900 3.409750 -74.407600 5.348090 -0.000007 -0.000001 -63.342800 33.938300 -19.652700 24.328600 0.000019 0.000005 10.072200 17.305900 -30.842100 22.291600 -0.000001 0.000005 15.038000 5.317230 -0.415817 12.994500 -0.242716 -4.980390 88.474500 9.625750 -80.950500 -5.348130 -0.000001 -0.000004 -58.092500 29.674900 -19.146900 -24.328900 0.000322 -0.000009 1.058740 2.667730 -21.674200 -22.291500 -0.000108 -0.000004 15.910200 5.425740 -3.792790 -2.192480 -6.469440 -0.000000 -178.627000 -5.696620 -20.115300 39.081100 -0.000007 -0.000012 0.026893 -0.013923 62.621100 40.985400 -0.000006 -0.000013 1.683770 -5.253490 -64.246100 11.754300 -0.000000 0.000003 -0.003298 -0.043931 -18.363500 -2.192510 6.469440 -0.000001 -178.569000 15.786000 166.056000 -39.081100 -0.002282 -0.040193 -0.038996 0.057451 36.352900 -40.985400 0.000008 0.000006 8.101440 3.932800 -71.589200 -11.754300 -0.000006 -0.000006 -0.006639 -0.076530 -19.688300
0.000000 0.000000 0.000000 0.000000 0.000000 -0.000000 122.485000 90.198700 -11.402300 89.938300 -0.966741 1.869630 15.735700 0.000005 -0.000001 88.956500 80.859900 -88.035000 8.984550 -0.406207 -0.000000 10.514400 -0.308533 1.870370 16.377300 -0.000001 -0.000001 2.855960 -6.420690 2.692260 6.456720 -0.000001 -0.000000 -1.217190 -6.761760 0.111577 12.994200 -0.242716 4.980390 -90.934600 3.324010 -74.286100 5.348090 -0.000007 -0.000001 -64.581200 34.370100 -17.958500 24.328600 0.000019 0.000005 9.646700 18.240700 -28.503900 22.291600 -0.000001 0.000005 14.275800 5.315680 -0.371212 12.994500 -0.242716 -4.980390 88.555400 9.264890 -81.097800 -5.348130 -0.000001 -0.000004 -57.109600 28.705300 -21.423100 -24.328900 0.000322 -0.000009 1.085040 2.565330 -22.956600 -22.291500 -0.000108 -0.000004 16.650300 5.428740 -3.896070 -2.192480 -6.469440 -0.000000 -179.507000 -6.612800 -21.947400 39.081100 -0.000007 -0.000012 0.020762 -0.012643 58.650100 40.985400 -0.000006 -0.000013 2.000260 -5.183810 -65.035300 11.754300 -0.000000 0.000003 -0.003665 -0.047917 -18.525800 -2.192510 6.469440 -0.000001 -179.116000 16.836600 167.681000 -39.081100 -0.002282 -0.040193 -0.017461 0.029708 34.936200 -40.985400 0.000008 0.000006 8.556900 5.282260 -72.177600 -11.754300 -0.000006 -0.000006 -0.006136 -0.072066 -19.506200
0.000000 0.000000 0.000000 0.000000 0.000000 -0.000000 122.482000 90.398700 -9.880640 90.159900 -1.403050 1.559850 15.735700 0.000005 -0.000001 90.091200 80.854100 -89.331400 8.984550 -0.406207 -0.000000 10.525900 0.047182 1.514260 16.377300 -0.000001 -0.000001 2.859700 -6.559110 2.695860 6.456720 -0.000001 -0.000000 -1.212180 -6.946590 0.001671 12.994200 -0.242716 4.980390 -90.941200 3.334460 -74.228400 5.348090 -0.000007 -0.000001 -65.739600 34.596900 -16.352200 24.328600 0.000019 0.000005 9.216190 19.541900 -25.877100 22.291600 -0.000001 0.000005 13.252300 5.309860 -0.204944 12.994500 -0.242716 -4.980390 88.641100 8.824050 -81.209700 -5.348130 -0.000001 -0.000004 -56.494500 27.663900 -23.348500 -24.328900 0.000322 -0.000009 0.811955 1.813320 -24.159500 -22.291500 -0.000108 -0.000004 17.042000 5.435120 -4.115610 -2.192480 -6.469440 -0.000000 179.710000 -7.409660 -22.977500 39.081100 -0.000007 -0.000012 0.017290 -0.013475 52.059600 40.985400 -0.000006 -0.000013 0.988564 -3.713230 -65.222400 11.754300 -0.000000 0.000003 -0.002917 -0.039671 -18.190100 -2.192510 6.469440 -0.000001 -179.677000 17.883800 169.191000 -39.081100 -0.002282 -0.040193 0.016076 -0.019220 33.624100 -40.985400 0.000008 0.000006 9.011190 6.578020 -72.825700 -11.754300 -0.000006 -0.000006 -0.005561 -0.066795 -19.291200
0.000000 0.000000 0.000000 0.000000 0.000000 -0.000000 122.503000 90.501000 -8.328690 90.211600 -1.747460 1.124210 15.735700 0.000005 -0.000001 91.005000 80.901000 -90.387400 8.984550 -0.406207 -0.000000 10.427700 0.331336 1.204180 16.377300 -0.000001 -0.000001 2.782260 -6.645720 2.730630 6.456720 -0.000001 -0.000000 -1.230570 -7.148870 -0.083490 12.994200 -0.242716 4.980390 -90.966500 3.397970 -74.113100 5.348090 -0.000007 -0.000001 -66.833000 34.518900 -14.739300 24.328600 0.000019 0.000005 8.723720 20.853600 -23.319000 22.291600 -0.000001 0.000005 12.403900 5.301140 0.040501 12.994500 -0.242716 -4.980390 88.701700 8.486140 -81.269000 -5.348130 -0.000001 -0.000004 -55.857400 26.986100 -24.943500 -24.328900 0.000322 -0.000009 0.483903 1.019810 -25.442000 -22.291500 -0.000108 -0.000004 17.142600 5.438540 -4.234650 -2.192480 -6.469440 -0.000000 179.058000 -8.416500 -23.512900 39.081100 -0.000007 -0.000012 0.011930 -0.012398 43.889700 40.985400 -0.000006 -0.000013 -0.158046 -1.916000 -64.463700 11.754300 -0.000000 0.000003 -0.002469 -0.034452 -17.977800 -2.192510 6.469440 -0.000001 179.885000 18.728100 170.450000 -39.081100 -0.002282 -0.040193 0.020469 -0.026835 32.616200 -40.985400 0.000008 0.000006 9.299150 7.656660 -73.476000 -11.754300 -0.000006 -0.000006 -0.004764 -0.059166 -18.980300
0.000000 0.000000 0.000000 0.000000 0.000000 -0.000000 122.568000 90.473800 -6.678490 90.155100 -1.994420 0.677062 15.735700 0.000005 -0.000001 91.678900 80.948000 -91.176500 8.984550 -0.406207 -0.000000 10.328200 0.538085 0.955545 16.377300 -0.000001 -0.000001 2.617120 -6.736160 2.738930 6.456720 -0.000001 -0.000000 -1.316110 -7.343900 -0.143154 12.994200 -0.242716 4.980390 -90.987400 3.440960 -73.977700 5.348090 -0.000007 -0.000001 -67.982100 34.032600 -13.207800 24.328600 0.000019 0.000005 8.177040 22.127200 -20.881900 22.291600 -0.000001 0.000005 11.804000 5.294100 0.237456 12.994500 -0.242716 -4.980390 88.753200 8.194170 -81.318200 -5.348130 -0.000001 -0.000004 -55.045700 26.694500 -26.269200 -24.328900 0.000322 -0.000009 0.341788 0.680803 -26.734300 -22.291500 -0.000108 -0.000004 17.314100 5.446150 -4.502530 -2.192480 -6.469440 -0.000000 178.307000 -9.616150 -23.895900 39.081100 -0.000007 -0.000012 0.006120 -0.008578 35.500700 40.985400 -0.000006 -0.000013 -0.444663 -0.549797 -62.665500 11.754300 -0.000000 0.000003 -0.002134 -0.030388 -17.812500 -2.192510 6.469440 -0.000001 179.487000 19.327500 171.498000 -39.081100 -0.002282 -0.040193 0.015899 -0.020076 32.115700 -40.985400 0.000008 0.000006 9.254440 8.564720 -74.171800 -11.754300 -0.000006 -0.000006 -0.004366 -0.055198 -18.818600
0.000000 0.000000 0.000000 0.000000 0.000000 -0.000000 122.705000 90.318200 -4.860210 90.260900 -2.111810 0.291116 15.735700 0.000005 -0.000001 92.050200 80.995700 -91.734600 8.984550 -0.406207 -0.000000 10.229900 0.646809 0.572920 16.377300 -0.000001 -0.000001 2.462730 -6.835460 2.770120 6.456720 -0.000001 -0.000000 -1.389690 -7.507110 -0.086382 12.994200 -0.242716 4.980390 -90.976400 3.394600 -73.942200 5.348090 -0.000007 -0.000001 -69.105400 33.269100 -11.863600 24.328600 0.000019 0.000005 7.546960 23.110200 -18.652100 22.291600 -0.000001 0.000005 11.390900 5.282160 0.567153 12.994500 -0.242716 -4.980390 88.781200 8.058160 -81.369700 -5.348130 -0.000001 -0.000004 -54.056500 26.671000 -27.195400 -24.328900 0.000322 -0.000009 0.315158 0.592913 -28.076900 -22.291500 -0.000108 -0.000004 17.538600 5.447370 -4.545920 -2.192480 -6.469440 -0.000000 176.680000 -10.426300 -25.240000 39.081100 -0.000007 -0.000012 0.104375 -0.181778 29.863900 40.985400 -0.000006 -0.000013 3.752770 -0.175165 -60.178100 11.754300 -0.000000 0.000003 -0.002333 -0.032815 -17.911200 -2.192510 6.469440 -0.000001 178.853000 19.712600 172.428000 -39.081100 -0.002282 -0.040193 0.012222 -0.014169 32.207900 -40.985400 0.000008 0.000006 9.198300 8.968510 -75.099600 -11.754300 -0.000006 -0.000006 -0.004141 -0.052895 -18.724800
